<mxfile host="app.diagrams.net" modified="2024-05-01T23:57:53.015Z" agent="Mozilla/5.0 (Windows NT 10.0; Win64; x64) AppleWebKit/537.36 (KHTML, like Gecko) Chrome/124.0.0.0 Safari/537.36" etag="0yrovf8lFKDt8S7THCgu" version="24.3.1" type="github">
  <diagram name="Page-1" id="CIfAalexgCowhK5ZFZZT">
    <mxGraphModel dx="1644" dy="1554" grid="1" gridSize="10" guides="1" tooltips="1" connect="1" arrows="1" fold="1" page="1" pageScale="1" pageWidth="850" pageHeight="1100" math="0" shadow="0">
      <root>
        <mxCell id="0" />
        <mxCell id="1" parent="0" />
        <mxCell id="r-bJiJgC-KNmWARKEaQ--11" style="edgeStyle=orthogonalEdgeStyle;rounded=0;orthogonalLoop=1;jettySize=auto;html=1;exitX=0;exitY=0.5;exitDx=0;exitDy=0;" edge="1" parent="1" source="r-bJiJgC-KNmWARKEaQ--1">
          <mxGeometry relative="1" as="geometry">
            <mxPoint x="40" y="-240" as="targetPoint" />
          </mxGeometry>
        </mxCell>
        <mxCell id="r-bJiJgC-KNmWARKEaQ--13" style="edgeStyle=orthogonalEdgeStyle;rounded=0;orthogonalLoop=1;jettySize=auto;html=1;exitX=1;exitY=0.5;exitDx=0;exitDy=0;entryX=0.5;entryY=0;entryDx=0;entryDy=0;" edge="1" parent="1" source="r-bJiJgC-KNmWARKEaQ--1" target="r-bJiJgC-KNmWARKEaQ--12">
          <mxGeometry relative="1" as="geometry" />
        </mxCell>
        <mxCell id="r-bJiJgC-KNmWARKEaQ--1" value="Is it cleanly&lt;div&gt;divisible by 4?&lt;/div&gt;" style="rhombus;whiteSpace=wrap;html=1;" vertex="1" parent="1">
          <mxGeometry x="20" y="-360" width="180" height="90" as="geometry" />
        </mxCell>
        <mxCell id="r-bJiJgC-KNmWARKEaQ--3" style="edgeStyle=orthogonalEdgeStyle;rounded=0;orthogonalLoop=1;jettySize=auto;html=1;exitX=0.5;exitY=1;exitDx=0;exitDy=0;entryX=0.5;entryY=0;entryDx=0;entryDy=0;" edge="1" parent="1" source="r-bJiJgC-KNmWARKEaQ--2" target="r-bJiJgC-KNmWARKEaQ--1">
          <mxGeometry relative="1" as="geometry" />
        </mxCell>
        <mxCell id="r-bJiJgC-KNmWARKEaQ--2" value="Start" style="rounded=1;whiteSpace=wrap;html=1;fontFamily=Helvetica;" vertex="1" parent="1">
          <mxGeometry x="56.5" y="-440" width="120" height="60" as="geometry" />
        </mxCell>
        <mxCell id="r-bJiJgC-KNmWARKEaQ--5" value="NOT Leap" style="rounded=1;whiteSpace=wrap;html=1;fillColor=#f8cecc;strokeColor=#b85450;" vertex="1" parent="1">
          <mxGeometry x="10" y="-230" width="120" height="60" as="geometry" />
        </mxCell>
        <mxCell id="r-bJiJgC-KNmWARKEaQ--4" value="LEAP" style="rounded=1;whiteSpace=wrap;html=1;fillColor=#d5e8d4;strokeColor=#82b366;" vertex="1" parent="1">
          <mxGeometry x="500" y="-90" width="120" height="60" as="geometry" />
        </mxCell>
        <mxCell id="r-bJiJgC-KNmWARKEaQ--19" style="edgeStyle=orthogonalEdgeStyle;rounded=0;orthogonalLoop=1;jettySize=auto;html=1;exitX=1;exitY=0.5;exitDx=0;exitDy=0;entryX=0.5;entryY=0;entryDx=0;entryDy=0;" edge="1" parent="1" source="r-bJiJgC-KNmWARKEaQ--12" target="r-bJiJgC-KNmWARKEaQ--17">
          <mxGeometry relative="1" as="geometry">
            <mxPoint x="430" y="-225" as="targetPoint" />
          </mxGeometry>
        </mxCell>
        <mxCell id="r-bJiJgC-KNmWARKEaQ--12" value="Is it cleanly&lt;div&gt;divisible by 100?&lt;/div&gt;" style="rhombus;whiteSpace=wrap;html=1;" vertex="1" parent="1">
          <mxGeometry x="150" y="-270" width="193" height="90" as="geometry" />
        </mxCell>
        <mxCell id="r-bJiJgC-KNmWARKEaQ--14" value="NOT Leap" style="rounded=1;whiteSpace=wrap;html=1;fillColor=#f8cecc;strokeColor=#b85450;" vertex="1" parent="1">
          <mxGeometry x="110" y="-140" width="120" height="60" as="geometry" />
        </mxCell>
        <mxCell id="r-bJiJgC-KNmWARKEaQ--16" style="edgeStyle=orthogonalEdgeStyle;rounded=0;orthogonalLoop=1;jettySize=auto;html=1;exitX=0;exitY=0.5;exitDx=0;exitDy=0;entryX=0.478;entryY=-0.1;entryDx=0;entryDy=0;entryPerimeter=0;" edge="1" parent="1" source="r-bJiJgC-KNmWARKEaQ--12" target="r-bJiJgC-KNmWARKEaQ--14">
          <mxGeometry relative="1" as="geometry">
            <Array as="points">
              <mxPoint x="150" y="-160" />
              <mxPoint x="160" y="-160" />
              <mxPoint x="160" y="-146" />
            </Array>
          </mxGeometry>
        </mxCell>
        <mxCell id="r-bJiJgC-KNmWARKEaQ--20" style="edgeStyle=orthogonalEdgeStyle;rounded=0;orthogonalLoop=1;jettySize=auto;html=1;exitX=0;exitY=0.5;exitDx=0;exitDy=0;" edge="1" parent="1" source="r-bJiJgC-KNmWARKEaQ--17">
          <mxGeometry relative="1" as="geometry">
            <mxPoint x="310" y="-120" as="targetPoint" />
          </mxGeometry>
        </mxCell>
        <mxCell id="r-bJiJgC-KNmWARKEaQ--21" style="edgeStyle=orthogonalEdgeStyle;rounded=0;orthogonalLoop=1;jettySize=auto;html=1;exitX=1;exitY=0.5;exitDx=0;exitDy=0;entryX=0.25;entryY=0;entryDx=0;entryDy=0;" edge="1" parent="1" source="r-bJiJgC-KNmWARKEaQ--17" target="r-bJiJgC-KNmWARKEaQ--4">
          <mxGeometry relative="1" as="geometry" />
        </mxCell>
        <mxCell id="r-bJiJgC-KNmWARKEaQ--17" value="Is it cleanly&lt;div&gt;divisible by 400?&lt;/div&gt;" style="rhombus;whiteSpace=wrap;html=1;" vertex="1" parent="1">
          <mxGeometry x="329" y="-210" width="193" height="90" as="geometry" />
        </mxCell>
        <mxCell id="r-bJiJgC-KNmWARKEaQ--18" value="NOT Leap" style="rounded=1;whiteSpace=wrap;html=1;fillColor=#f8cecc;strokeColor=#b85450;" vertex="1" parent="1">
          <mxGeometry x="300" y="-110" width="120" height="60" as="geometry" />
        </mxCell>
      </root>
    </mxGraphModel>
  </diagram>
</mxfile>
